<svg width="40" height="40" viewBox="0 0 40 40" fill="none" xmlns="http://www.w3.org/2000/svg">
<path d="M3.33333 8.33333C3.33333 7.44928 3.68452 6.60143 4.30964 5.97631C4.93476 5.35119 5.78261 5 6.66666 5H16.6667V35H6.66666C5.78261 35 4.93476 34.6488 4.30964 34.0237C3.68452 33.3986 3.33333 32.5507 3.33333 31.6667V8.33333ZM23.3333 5H33.3333C34.2174 5 35.0652 5.35119 35.6903 5.97631C36.3155 6.60143 36.6667 7.44928 36.6667 8.33333V16.6667H23.3333V5ZM23.3333 23.3333H36.6667V31.6667C36.6667 32.5507 36.3155 33.3986 35.6903 34.0237C35.0652 34.6488 34.2174 35 33.3333 35H23.3333V23.3333Z" stroke="#FFF9FF" stroke-width="4" stroke-linecap="round" stroke-linejoin="round"/>
</svg>
