<svg width="48" height="48" viewBox="0 0 48 48" fill="none" xmlns="http://www.w3.org/2000/svg">
<path d="M19.7891 13.2827H26.2411M19.7891 20.6565H31.7714M19.7891 28.0303H31.7714" stroke="white" stroke-width="1.2" stroke-linecap="round" stroke-linejoin="round"/>
<path fill-rule="evenodd" clip-rule="evenodd" d="M41.7468 29.6198C41.9093 28.0227 41.9093 26.0227 41.9093 23.4987L41.9093 18.2939C41.9097 16.362 41.9099 15.1162 41.5738 13.9371C41.3896 13.2906 41.1315 12.6676 40.8047 12.0802C40.2086 11.0088 39.3275 10.128 37.9612 8.76228L37.6737 8.47479C36.308 7.1085 35.4272 6.22737 34.3558 5.63128C33.7684 5.30448 33.1453 5.0464 32.4989 4.86214C31.3198 4.52605 30.074 4.5263 28.1421 4.5267L25.7791 4.52672V4.53072C24.0549 4.54106 22.6036 4.57811 21.3789 4.7108C19.6365 4.89958 18.1895 5.29513 16.9454 6.19904C16.202 6.73913 15.5483 7.39285 15.0082 8.13622C14.4326 8.92849 14.0631 9.80302 13.8219 10.7837L12.3105 11.1887C7.6393 12.4404 4.86719 17.2418 6.11884 21.913L10.1743 37.0484C11.426 41.7196 16.2274 44.4917 20.8986 43.24L31.5824 40.3773C33.6229 39.8306 35.3009 38.6066 36.4396 37.0119C36.9996 36.8166 37.5233 36.5633 38.0177 36.233C38.9738 35.5941 39.7947 34.7732 40.4335 33.8171C41.232 32.6222 41.5804 31.2561 41.7468 29.6198ZM28.1642 7.29194L27.9389 7.29189C25.1707 7.29192 23.2001 7.29483 21.6767 7.45988C20.1696 7.62317 19.2649 7.93175 18.5707 8.43611C18.0621 8.80564 17.6148 9.25292 17.2453 9.76154C16.7409 10.4557 16.4323 11.3604 16.269 12.8676C16.1029 14.4006 16.101 16.3863 16.101 19.1821V23.422C16.101 26.0398 16.1027 27.8991 16.2493 29.3399C16.3935 30.7576 16.6665 31.616 17.1107 32.2809C17.5479 32.9351 18.1095 33.4967 18.7637 33.9338C19.4286 34.3781 20.287 34.6511 21.7047 34.7953C23.1454 34.9419 25.0047 34.9435 27.6226 34.9435C30.2404 34.9435 32.0997 34.9419 33.5405 34.7953C34.9582 34.6511 35.8165 34.3781 36.4814 33.9338C37.1356 33.4967 37.6973 32.9351 38.1344 32.2809C38.5787 31.616 38.8516 30.7576 38.9958 29.3399C39.1424 27.8991 39.1441 26.0398 39.1441 23.422V18.8134C39.1441 17.9053 39.1412 17.3633 39.0889 16.9749C39.065 16.7969 39.0368 16.7077 39.0203 16.6676C39.0165 16.6583 39.0135 16.6522 39.0116 16.6486L39.0091 16.6441L39.0046 16.6416C39.001 16.6397 38.9949 16.6367 38.9856 16.6329C38.9455 16.6164 38.8563 16.5882 38.6783 16.5643C38.2899 16.512 37.7479 16.5091 36.8398 16.5091L34.9139 16.5091C34.116 16.5092 33.3844 16.5093 32.7894 16.4293C32.1341 16.3412 31.4414 16.1339 30.8718 15.5642C30.3021 14.9946 30.0948 14.3019 30.0067 13.6466C29.9267 13.0515 29.9268 12.32 29.9269 11.5221L29.9269 9.22751C29.9269 8.50547 29.925 8.07499 29.8909 7.76056C29.8709 7.5756 29.8454 7.49982 29.8359 7.47785C29.8091 7.44171 29.777 7.40971 29.7409 7.38285C29.7189 7.37338 29.6432 7.34789 29.4582 7.32785C29.1697 7.2966 28.7836 7.29242 28.1642 7.29194ZM30.9197 37.6919C29.9534 37.7087 28.884 37.7087 27.6992 37.7087H27.5459C25.0219 37.7087 23.0219 37.7087 21.4248 37.5463C19.7885 37.3798 18.4224 37.0314 17.2275 36.233C16.2714 35.5941 15.4504 34.7732 14.8116 33.8171C14.0131 32.6222 13.6648 31.2561 13.4983 29.6198C13.3358 28.0227 13.3359 26.0228 13.3359 23.4987V19.1001C13.3359 16.9964 13.3359 15.2337 13.4234 13.7532L13.0262 13.8597C9.8301 14.716 7.93339 18.0012 8.78978 21.1973L12.8453 36.3327C13.7017 39.5288 16.9869 41.4255 20.183 40.5691L30.8667 37.7064C30.8845 37.7016 30.9021 37.6968 30.9197 37.6919ZM38.3883 13.4246C38.4526 13.5401 38.513 13.6577 38.5695 13.7771C38.0769 13.7438 37.5181 13.7439 36.9223 13.7439L34.9963 13.7439C34.0883 13.7439 33.5463 13.741 33.1578 13.6888C32.9798 13.6648 32.8907 13.6367 32.8505 13.6201C32.8412 13.6163 32.8351 13.6133 32.8315 13.6115L32.827 13.6089L32.8245 13.6044C32.8226 13.6009 32.8197 13.5948 32.8158 13.5855C32.7993 13.5453 32.7711 13.4562 32.7472 13.2782C32.695 12.8897 32.692 12.3477 32.692 11.4396L32.692 9.16245C32.6921 8.69821 32.6921 8.26186 32.6718 7.87262C32.7867 7.9273 32.9 7.98566 33.0114 8.04764C33.7037 8.43283 34.3031 9.0148 35.8622 10.5738C37.4212 12.1329 38.0032 12.7322 38.3883 13.4246Z" fill="#FFF9FF"/>
</svg>
