<svg width="40" height="40" viewBox="0 0 40 40" fill="none" xmlns="http://www.w3.org/2000/svg">
<path d="M13.3334 16.6667L20 23.3333L26.6667 16.6667M6.66671 5H33.3334C34.2174 5 35.0653 5.35119 35.6904 5.97631C36.3155 6.60143 36.6667 7.44928 36.6667 8.33333V18.3333C36.6667 22.7536 34.9108 26.9928 31.7852 30.1184C28.6595 33.2441 24.4203 35 20 35C17.8113 35 15.6441 34.5689 13.622 33.7313C11.5999 32.8937 9.76257 31.6661 8.21493 30.1184C5.08932 26.9928 3.33337 22.7536 3.33337 18.3333V8.33333C3.33337 7.44928 3.68456 6.60143 4.30968 5.97631C4.93481 5.35119 5.78265 5 6.66671 5Z" stroke="white" stroke-width="4" stroke-linecap="round" stroke-linejoin="round"/>
</svg>
