<svg width="48" height="48" viewBox="0 0 48 48" fill="none" xmlns="http://www.w3.org/2000/svg">
<path d="M24 30C27.3137 30 30 27.3137 30 24C30 20.6863 27.3137 18 24 18C20.6863 18 18 20.6863 18 24C18 27.3137 20.6863 30 24 30Z" stroke="#FFF9FF" stroke-width="3"/>
<path d="M27.53 4.304C26.796 4 25.864 4 24 4C22.136 4 21.204 4 20.47 4.304C19.9843 4.50503 19.5431 4.79979 19.1714 5.17145C18.7998 5.5431 18.505 5.98436 18.304 6.47C18.12 6.916 18.046 7.438 18.018 8.196C18.005 8.74386 17.8532 9.27946 17.5769 9.75271C17.3005 10.226 16.9087 10.6214 16.438 10.902C15.9596 11.1695 15.4212 11.3113 14.873 11.3141C14.3249 11.3169 13.7851 11.1806 13.304 10.918C12.632 10.562 12.146 10.366 11.664 10.302C10.6126 10.1637 9.54939 10.4486 8.70799 11.094C8.07999 11.58 7.61199 12.386 6.67999 14C5.74799 15.614 5.27999 16.42 5.17799 17.21C5.10926 17.7309 5.14383 18.2602 5.27972 18.7678C5.41561 19.2753 5.65017 19.7511 5.96999 20.168C6.26599 20.552 6.67999 20.874 7.32199 21.278C8.26799 21.872 8.87599 22.884 8.87599 24C8.87599 25.116 8.26799 26.128 7.32199 26.72C6.67999 27.126 6.26399 27.448 5.96999 27.832C5.65017 28.2489 5.41561 28.7247 5.27972 29.2322C5.14383 29.7398 5.10926 30.2691 5.17799 30.79C5.28199 31.578 5.74799 32.386 6.67799 34C7.61199 35.614 8.07799 36.42 8.70799 36.906C9.12486 37.2258 9.60065 37.4604 10.1082 37.5963C10.6157 37.7322 11.1451 37.7667 11.666 37.698C12.146 37.634 12.632 37.438 13.304 37.082C13.7851 36.8194 14.3249 36.6831 14.873 36.6859C15.4212 36.6887 15.9596 36.8305 16.438 37.098C17.404 37.658 17.978 38.688 18.018 39.804C18.046 40.564 18.118 41.084 18.304 41.53C18.505 42.0156 18.7998 42.4569 19.1714 42.8286C19.5431 43.2002 19.9843 43.495 20.47 43.696C21.204 44 22.136 44 24 44C25.864 44 26.796 44 27.53 43.696C28.0156 43.495 28.4569 43.2002 28.8285 42.8286C29.2002 42.4569 29.495 42.0156 29.696 41.53C29.88 41.084 29.954 40.564 29.982 39.804C30.022 38.688 30.596 37.656 31.562 37.098C32.0404 36.8305 32.5788 36.6887 33.1269 36.6859C33.675 36.6831 34.2149 36.8194 34.696 37.082C35.368 37.438 35.854 37.634 36.334 37.698C36.8549 37.7667 37.3842 37.7322 37.8918 37.5963C38.3993 37.4604 38.8751 37.2258 39.292 36.906C39.922 36.422 40.388 35.614 41.32 34C42.252 32.386 42.72 31.58 42.822 30.79C42.8907 30.2691 42.8561 29.7398 42.7203 29.2322C42.5844 28.7247 42.3498 28.2489 42.03 27.832C41.734 27.448 41.32 27.126 40.678 26.722C40.2098 26.4368 39.8217 26.0375 39.5499 25.5614C39.2781 25.0854 39.1316 24.5481 39.124 24C39.124 22.884 39.732 21.872 40.678 21.28C41.32 20.874 41.736 20.552 42.03 20.168C42.3498 19.7511 42.5844 19.2753 42.7203 18.7678C42.8561 18.2602 42.8907 17.7309 42.822 17.21C42.718 16.422 42.252 15.614 41.322 14C40.388 12.386 39.922 11.58 39.292 11.094C38.8751 10.7742 38.3993 10.5396 37.8918 10.4037C37.3842 10.2678 36.8549 10.2333 36.334 10.302C35.854 10.366 35.368 10.562 34.694 10.918C34.2131 11.1803 33.6736 11.3164 33.1259 11.3136C32.5782 11.3108 32.0401 11.1692 31.562 10.902C31.0913 10.6214 30.6994 10.226 30.4231 9.75271C30.1468 9.27946 29.995 8.74386 29.982 8.196C29.954 7.436 29.882 6.916 29.696 6.47C29.495 5.98436 29.2002 5.5431 28.8285 5.17145C28.4569 4.79979 28.0156 4.50503 27.53 4.304Z" stroke="#FFF9FF" stroke-width="3"/>
</svg>
